<!--?xml version="1.0" standalone="no"?-->
              <svg id="sw-js-blob-svg" viewBox="0 0 100 100" xmlns="http://www.w3.org/2000/svg" version="1.1">
                    <defs> 
                        <linearGradient id="sw-gradient" x1="0" x2="1" y1="1" y2="0">
                            <stop id="stop1" stop-color="rgba(109, 103, 228, 1)" offset="0%"></stop>
                            <stop id="stop2" stop-color="rgba(255, 255, 255, 1)" offset="100%"></stop>
                        </linearGradient>
                    </defs>
                <path fill="url(#sw-gradient)" d="M13.5,-15.8C20.5,-10.1,31.5,-8.8,34.8,-4.1C38,0.6,33.6,8.7,27.9,13.8C22.2,18.9,15.3,21.1,9,22.4C2.7,23.7,-3.1,24.1,-11.1,24C-19,23.9,-29,23.2,-30.8,18.6C-32.5,13.9,-25.8,5.3,-24.2,-4.3C-22.5,-13.8,-25.8,-24.3,-22.6,-30.7C-19.4,-37.1,-9.7,-39.5,-3.3,-35.6C3.2,-31.7,6.4,-21.5,13.5,-15.8Z" width="100%" height="100%" transform="translate(50 50)" stroke-width="0" style="transition: all 0.3s ease 0s;"></path>
              </svg>